<svg xmlns="http://www.w3.org/2000/svg" xmlns:xlink="http://www.w3.org/1999/xlink" width="197" height="40" viewBox="0 0 197 40"><defs><clipPath id="b"><rect width="197" height="40"/></clipPath></defs><g id="a" clip-path="url(#b)"><path d="M16.01,0H31V16.609ZM.146,9.747H0Q0,4.752,2.721,2.376T11.1,0L31,24.1q0,4.8-2.6,6.862-2.527,2.012-8.26,2.012ZM.073,16.294,14.5,33H.073Z" transform="translate(3 4)" fill="#ffd00a"/><path d="M12.114.54A12.719,12.719,0,0,1,6.993-.45,9.565,9.565,0,0,1,3.249-3.285,9.176,9.176,0,0,1,1.386-7.668l4.5-.684A5.953,5.953,0,0,0,8.253-4.788a7,7,0,0,0,4.131,1.26,7.785,7.785,0,0,0,2.61-.432,4.844,4.844,0,0,0,1.989-1.26,2.886,2.886,0,0,0,.765-2.034,2.713,2.713,0,0,0-.18-1,2.439,2.439,0,0,0-.531-.819,3.713,3.713,0,0,0-.9-.657,6.733,6.733,0,0,0-1.269-.513l-6.7-1.98A17.08,17.08,0,0,1,6.309-12.9a7.473,7.473,0,0,1-1.89-1.17,5.726,5.726,0,0,1-1.458-1.908,6.511,6.511,0,0,1-.567-2.871,6.831,6.831,0,0,1,1.269-4.2A7.646,7.646,0,0,1,7.083-25.6a12.713,12.713,0,0,1,4.779-.828,12.22,12.22,0,0,1,4.752.909,9.108,9.108,0,0,1,3.492,2.583,9.928,9.928,0,0,1,1.98,4.086l-4.662.81a5.174,5.174,0,0,0-1.107-2.331,5.342,5.342,0,0,0-2-1.467,6.8,6.8,0,0,0-2.511-.54,6.669,6.669,0,0,0-2.4.387,4.328,4.328,0,0,0-1.782,1.161,2.566,2.566,0,0,0-.675,1.764,2.161,2.161,0,0,0,.576,1.557,4.1,4.1,0,0,0,1.431.954,14.071,14.071,0,0,0,1.737.585l4.644,1.3q.954.252,2.142.684a9.737,9.737,0,0,1,2.286,1.206,6.126,6.126,0,0,1,1.809,2.034,6.461,6.461,0,0,1,.711,3.2,7.219,7.219,0,0,1-.837,3.537,7.487,7.487,0,0,1-2.259,2.529A10.3,10.3,0,0,1,15.939.036,14.319,14.319,0,0,1,12.114.54ZM32.6,0V-10.62l-8.82-15.3h5.058l5.958,10.332,5.94-10.332h5.058l-8.8,15.3V0ZM49.5,0V-25.92h8.262q.324,0,1.287.018a18.544,18.544,0,0,1,1.863.126,9.865,9.865,0,0,1,5.211,2.187,11.246,11.246,0,0,1,3.231,4.563,16.329,16.329,0,0,1,1.1,6.066,16.329,16.329,0,0,1-1.1,6.066,11.246,11.246,0,0,1-3.231,4.563A9.865,9.865,0,0,1,60.912-.144a18.008,18.008,0,0,1-1.854.126Q58.086,0,57.762,0Zm4.41-4.086h3.852q.54,0,1.377-.036a10.124,10.124,0,0,0,1.485-.162,5.126,5.126,0,0,0,2.988-1.638,8.146,8.146,0,0,0,1.7-3.15,13.622,13.622,0,0,0,.549-3.888,13.674,13.674,0,0,0-.558-3.96,7.856,7.856,0,0,0-1.719-3.114,5.236,5.236,0,0,0-2.961-1.6,8.094,8.094,0,0,0-1.485-.171q-.837-.027-1.377-.027H53.91ZM75.906,0V-25.92H80.3L92.322-7.65V-25.92h4.392V0H92.322L80.3-18.27V0Zm27.036,0V-25.92h16.74v4.068h-12.4v6.39h10.242v4.068H107.28v7.326h12.4V0ZM131.49,0V-10.62l-8.82-15.3h5.058l5.958,10.332,5.94-10.332h5.058l-8.8,15.3V0Z" transform="translate(48 34)" fill="#fff"/></g></svg>